# xmcd
#
# Track frame offsets:
#	150
#	22512
#	41615
#	70063
#	87599
#	109880
#	134538
#	149661
#	167816
#	185974
#	204402
#	217253
#	235810
#
# Disc length: 3368 seconds
#
# Revision: 2
# Processed by: cddbd v1.5.2PL0 Copyright (c) Steve Scherf et al.
# Submitted via: EasyCDDAExtractor 15.3.0.1
#
DISCID=c70d260d
DTITLE=Madonna - Madame X
DYEAR=2019
DGENRE=Pop
TTITLE0=Medellin (Madonna and Maluma)
TTITLE1=Dark Ballet
TTITLE2=God Control
TTITLE3=Future (Madonna and Quavo)
TTITLE4=Batuka
TTITLE5=Killers Who Are Partying
TTITLE6=Crave (Madonna and Swae Lee)
TTITLE7=Crazy
TTITLE8=Come Alive
TTITLE9=Faz Gostoso (Featuring Anitta)
TTITLE10=Bitch I'm Loca (Featuring Maluma)
TTITLE11=I Don't Search I Find
TTITLE12=I Rise
EXTD=
EXTT0=
EXTT1=
EXTT2=
EXTT3=
EXTT4=
EXTT5=
EXTT6=
EXTT7=
EXTT8=
EXTT9=
EXTT10=
EXTT11=
EXTT12=
PLAYORDER=
